<svg width="135" height="135" viewBox="0 0 135 135" fill="none" xmlns="http://www.w3.org/2000/svg">
<rect x="4" y="3" width="128" height="128" rx="16" fill="#111827"/>
<path d="M63.2468 62.6085C61.7718 66.1572 64.3795 70.065 68.2225 70.065C72.0656 70.065 74.6732 66.1572 73.1982 62.6085C71.3581 58.1815 65.0869 58.1815 63.2468 62.6085Z" fill="white"/>
<path d="M70.2378 20.7187C68.9345 20.2539 67.5105 20.2539 66.2072 20.7187L28.4916 34.1683C25.8619 35.106 24.2265 37.7337 24.5465 40.5072L30.3913 91.1767C30.6133 93.1007 31.7504 94.7994 33.4447 95.7378L65.3154 113.39C67.124 114.392 69.321 114.392 71.1296 113.39L103 95.7378C104.695 94.7994 105.832 93.1007 106.054 91.1767L111.899 40.5072C112.218 37.7337 110.583 35.106 107.953 34.1683L70.2378 20.7187ZM92.9075 85.9431C94.2768 89.0187 92.0257 92.485 88.659 92.485C86.7584 92.485 85.0491 91.3285 84.3422 89.5642L81.4649 82.3834C80.5529 80.1072 78.3475 78.615 75.8954 78.615H68.2225H60.5496C58.0975 78.615 55.8921 80.1072 54.9801 82.3834L52.1028 89.5642C51.3959 91.3285 49.6866 92.485 47.786 92.485C44.4193 92.485 42.1682 89.0187 43.5375 85.9431L62.7412 42.8092C64.8543 38.063 71.5907 38.063 73.7038 42.8092L92.9075 85.9431Z" fill="white"/>
<rect x="39" y="31" width="57" height="65" fill="white"/>
<path d="M86.6667 56.375H65.6667C63.0893 56.375 61 58.5016 61 61.125V82.5C61 85.1234 63.0893 87.25 65.6667 87.25H86.6667C89.244 87.25 91.3333 85.1234 91.3333 82.5V61.125C91.3333 58.5016 89.244 56.375 86.6667 56.375Z" stroke="#111827" stroke-width="4" stroke-linecap="round" stroke-linejoin="round"/>
<path d="M60.8728 70.625H49.3334C48.0957 70.625 46.9087 70.1246 46.0335 69.2338C45.1584 68.343 44.6667 67.1348 44.6667 65.875V44.5C44.6667 43.2402 45.1584 42.032 46.0335 41.1412C46.9087 40.2504 48.0957 39.75 49.3334 39.75H70.3334C71.571 39.75 72.758 40.2504 73.6332 41.1412C74.5084 42.032 75 43.2402 75 44.5V56.2454" stroke="#111827" stroke-width="4" stroke-linecap="round" stroke-linejoin="round"/>
</svg>
